HIERARCHY
ROOT Hips
{
  OFFSET -372.277008057 88.828384399 569.627502441
  CHANNELS 6 Xposition Yposition Zposition Zrotation Xrotation Yrotation
  JOINT Spine
  {
    OFFSET 3e-09 8.814247131 -2.080078125
    CHANNELS 3 Zrotation Xrotation Yrotation
    JOINT Spine1
    {
      OFFSET 0.0 8.844139099 0.0
      CHANNELS 3 Zrotation Xrotation Yrotation
      JOINT Spine2
      {
        OFFSET 0.0 11.682266235 0.0
        CHANNELS 3 Zrotation Xrotation Yrotation
        JOINT Spine3
        {
          OFFSET 0.0 11.746704102 0.0
          CHANNELS 3 Zrotation Xrotation Yrotation
          JOINT Neck
          {
            OFFSET 0.0 17.65826416 0.0
            CHANNELS 3 Zrotation Xrotation Yrotation
            JOINT Neck1
            {
              OFFSET 0.0 5.1015172 0.0
              CHANNELS 3 Zrotation Xrotation Yrotation
              JOINT Head
              {
                OFFSET 0.0 5.1015172 0.0
                CHANNELS 3 Zrotation Xrotation Yrotation
                JOINT HeadEnd
                {
                  OFFSET 0.0 11.655090332 0.0
                  CHANNELS 0 
                  End Site
                  {
                    OFFSET 0.0 3.496527195 0.0
                  }
                }
              }
            }
          }
          JOINT RightShoulder
          {
            OFFSET -2.625396967 11.175216675 0.0
            CHANNELS 3 Zrotation Xrotation Yrotation
            JOINT RightArm
            {
              OFFSET -10.434706688 6.22e-07 0.0
              CHANNELS 3 Zrotation Xrotation Yrotation
              JOINT RightForeArm
              {
                OFFSET -29.628416061 1.766e-06 0.0
                CHANNELS 3 Zrotation Xrotation Yrotation
                JOINT RightHand
                {
                  OFFSET -22.857603073 1.362e-06 6.1e-05
                  CHANNELS 3 Zrotation Xrotation Yrotation
                  JOINT RightHandThumb1
                  {
                    OFFSET -3.959564209 -2.867310047 2.944274902
                    CHANNELS 3 Zrotation Xrotation Yrotation
                    JOINT RightHandThumb2
                    {
                      OFFSET -2.445454836 -0.174735144 2.28350997
                      CHANNELS 3 Zrotation Xrotation Yrotation
                      JOINT RightHandThumb3
                      {
                        OFFSET -2.741876125 -0.195915341 2.560301542
                        CHANNELS 3 Zrotation Xrotation Yrotation
                        JOINT RightHandThumb4
                        {
                          OFFSET -2.297238588 -0.16414465 2.145109177
                          CHANNELS 0 
                          End Site
                          {
                            OFFSET -0.689171612 -0.049243398 0.643532753
                          }
                        }
                      }
                    }
                  }
                  JOINT RightHandIndex1
                  {
                    OFFSET -10.030900002 -0.086760841 2.345275879
                    CHANNELS 3 Zrotation Xrotation Yrotation
                    JOINT RightHandIndex2
                    {
                      OFFSET -4.061095715 2.42e-07 0.0
                      CHANNELS 3 Zrotation Xrotation Yrotation
                      JOINT RightHandIndex3
                      {
                        OFFSET -3.24887085 1.94e-07 0.0
                        CHANNELS 3 Zrotation Xrotation Yrotation
                        JOINT RightHandIndex4
                        {
                          OFFSET -2.639708757 1.57e-07 0.0
                          CHANNELS 0 
                          End Site
                          {
                            OFFSET -0.791912675 4.7e-08 0.0
                          }
                        }
                      }
                    }
                  }
                  JOINT RightHandMiddle1
                  {
                    OFFSET -9.502944946 0.104095154 0.006775022
                    CHANNELS 3 Zrotation Xrotation Yrotation
                    JOINT RightHandMiddle2
                    {
                      OFFSET -4.568725586 2.72e-07 0.0
                      CHANNELS 3 Zrotation Xrotation Yrotation
                      JOINT RightHandMiddle3
                      {
                        OFFSET -3.654983759 2.18e-07 0.0
                        CHANNELS 3 Zrotation Xrotation Yrotation
                        JOINT RightHandMiddle4
                        {
                          OFFSET -2.74124074 1.63e-07 0.0
                          CHANNELS 0 
                          End Site
                          {
                            OFFSET -0.822372258 4.9e-08 0.0
                          }
                        }
                      }
                    }
                  }
                  JOINT RightHandRing1
                  {
                    OFFSET -8.921708107 0.086761184 -2.267456055
                    CHANNELS 3 Zrotation Xrotation Yrotation
                    JOINT RightHandRing2
                    {
                      OFFSET -4.061095715 2.42e-07 0.0
                      CHANNELS 3 Zrotation Xrotation Yrotation
                      JOINT RightHandRing3
                      {
                        OFFSET -3.654983759 2.18e-07 0.0
                        CHANNELS 3 Zrotation Xrotation Yrotation
                        JOINT RightHandRing4
                        {
                          OFFSET -2.74124074 1.63e-07 0.0
                          CHANNELS 0 
                          End Site
                          {
                            OFFSET -0.822372258 4.9e-08 0.0
                          }
                        }
                      }
                    }
                  }
                  JOINT RightHandPinky1
                  {
                    OFFSET -7.9769907 -0.173491821 -4.467224121
                    CHANNELS 3 Zrotation Xrotation Yrotation
                    JOINT RightHandPinky2
                    {
                      OFFSET -3.350402832 2e-07 0.0
                      CHANNELS 3 Zrotation Xrotation Yrotation
                      JOINT RightHandPinky3
                      {
                        OFFSET -2.842757702 1.69e-07 0.0
                        CHANNELS 3 Zrotation Xrotation Yrotation
                        JOINT RightHandPinky4
                        {
                          OFFSET -2.639708757 1.57e-07 0.0
                          CHANNELS 0 
                          End Site
                          {
                            OFFSET -0.791912675 4.7e-08 0.0
                          }
                        }
                      }
                    }
                  }
                  JOINT RightForeArmEnd
                  {
                    OFFSET 0.0 0.0 0.0
                    CHANNELS 0 
                    End Site
                    {
                      OFFSET -0.0 -0.0 -0.0
                    }
                  }
                }
                JOINT RightArmEnd
                {
                  OFFSET 0.0 0.0 0.0
                  CHANNELS 0 
                  End Site
                  {
                    OFFSET -0.0 0.0 0.0
                  }
                }
              }
            }
          }
          JOINT LeftShoulder
          {
            OFFSET 2.625396967 11.175216675 0.0
            CHANNELS 3 Zrotation Xrotation Yrotation
            JOINT LeftArm
            {
              OFFSET 10.813628197 6.45e-07 0.0
              CHANNELS 3 Zrotation Xrotation Yrotation
              JOINT LeftForeArm
              {
                OFFSET 28.724775314 1.712e-06 0.0
                CHANNELS 3 Zrotation Xrotation Yrotation
                JOINT LeftHand
                {
                  OFFSET 25.716171265 -0.644379139 -0.328795969
                  CHANNELS 3 Zrotation Xrotation Yrotation
                  JOINT LeftHandThumb1
                  {
                    OFFSET 3.959563732 -2.867310762 2.944274902
                    CHANNELS 3 Zrotation Xrotation Yrotation
                    JOINT LeftHandThumb2
                    {
                      OFFSET 2.445455074 -0.174735546 2.283510208
                      CHANNELS 3 Zrotation Xrotation Yrotation
                      JOINT LeftHandThumb3
                      {
                        OFFSET 2.741876364 -0.195915788 2.560301781
                        CHANNELS 3 Zrotation Xrotation Yrotation
                        JOINT LeftHandThumb4
                        {
                          OFFSET 2.262690544 -0.161676437 2.112848997
                          CHANNELS 0 
                          End Site
                          {
                            OFFSET 0.678807199 -0.048502933 0.633854747
                          }
                        }
                      }
                    }
                  }
                  JOINT LeftHandIndex1
                  {
                    OFFSET 10.030900002 -0.086762041 2.345275879
                    CHANNELS 3 Zrotation Xrotation Yrotation
                    JOINT LeftHandIndex2
                    {
                      OFFSET 4.061095715 -4.84e-07 -1.1e-08
                      CHANNELS 3 Zrotation Xrotation Yrotation
                      JOINT LeftHandIndex3
                      {
                        OFFSET 3.24887085 -3.87e-07 -9e-09
                        CHANNELS 3 Zrotation Xrotation Yrotation
                        JOINT LeftHandIndex4
                        {
                          OFFSET 2.639708757 -3.15e-07 -7e-09
                          CHANNELS 0 
                          End Site
                          {
                            OFFSET 0.791912675 -9.4e-08 -2e-09
                          }
                        }
                      }
                    }
                  }
                  JOINT LeftHandMiddle1
                  {
                    OFFSET 9.502944946 0.104094021 0.006774992
                    CHANNELS 3 Zrotation Xrotation Yrotation
                    JOINT LeftHandMiddle2
                    {
                      OFFSET 4.568725586 -5.45e-07 -1.2e-08
                      CHANNELS 3 Zrotation Xrotation Yrotation
                      JOINT LeftHandMiddle3
                      {
                        OFFSET 3.654983759 -4.36e-07 -1e-08
                        CHANNELS 3 Zrotation Xrotation Yrotation
                        JOINT LeftHandMiddle4
                        {
                          OFFSET 2.74124074 -3.27e-07 -7e-09
                          CHANNELS 0 
                          End Site
                          {
                            OFFSET 0.822372258 -9.8e-08 -2e-09
                          }
                        }
                      }
                    }
                  }
                  JOINT LeftHandRing1
                  {
                    OFFSET 8.921708107 0.086760119 -2.267456055
                    CHANNELS 3 Zrotation Xrotation Yrotation
                    JOINT LeftHandRing2
                    {
                      OFFSET 4.061095715 -4.84e-07 -1.1e-08
                      CHANNELS 3 Zrotation Xrotation Yrotation
                      JOINT LeftHandRing3
                      {
                        OFFSET 3.654983759 -4.36e-07 -1e-08
                        CHANNELS 3 Zrotation Xrotation Yrotation
                        JOINT LeftHandRing4
                        {
                          OFFSET 2.74124074 -3.27e-07 -7e-09
                          CHANNELS 0 
                          End Site
                          {
                            OFFSET 0.822372258 -9.8e-08 -2e-09
                          }
                        }
                      }
                    }
                  }
                  JOINT LeftHandPinky1
                  {
                    OFFSET 7.9769907 -0.173492774 -4.467224121
                    CHANNELS 3 Zrotation Xrotation Yrotation
                    JOINT LeftHandPinky2
                    {
                      OFFSET 3.350402832 -3.99e-07 -9e-09
                      CHANNELS 3 Zrotation Xrotation Yrotation
                      JOINT LeftHandPinky3
                      {
                        OFFSET 2.842757702 -3.39e-07 -7e-09
                        CHANNELS 3 Zrotation Xrotation Yrotation
                        JOINT LeftHandPinky4
                        {
                          OFFSET 2.639708757 -3.15e-07 -7e-09
                          CHANNELS 0 
                          End Site
                          {
                            OFFSET 0.791912675 -9.4e-08 -2e-09
                          }
                        }
                      }
                    }
                  }
                  JOINT LeftForeArmEnd
                  {
                    OFFSET 0.0 0.0 0.0
                    CHANNELS 0 
                    End Site
                    {
                      OFFSET 0.0 -0.0 -0.0
                    }
                  }
                }
                JOINT LeftArmEnd
                {
                  OFFSET 0.0 0.0 0.0
                  CHANNELS 0 
                  End Site
                  {
                    OFFSET 0.0 -0.0 -0.0
                  }
                }
              }
            }
          }
        }
      }
    }
  }
  JOINT RightUpLeg
  {
    OFFSET -11.289948463 -0.0 0.0
    CHANNELS 3 Zrotation Xrotation Yrotation
    JOINT RightLeg
    {
      OFFSET 0.0 -38.200325012 0.0
      CHANNELS 3 Zrotation Xrotation Yrotation
      JOINT RightFoot
      {
        OFFSET 0.0 -39.900856018 0.0
        CHANNELS 3 Zrotation Xrotation Yrotation
        JOINT RightToeBase
        {
          OFFSET 0.0 -2.773e-06 15.261655807
          CHANNELS 3 Zrotation Xrotation Yrotation
          JOINT RightToeBaseEnd
          {
            OFFSET 0.0 -8.79e-07 7.370727539
            CHANNELS 0 
            End Site
            {
              OFFSET 0.0 -2.64e-07 2.211218357
            }
          }
        }
        JOINT RightLegEnd
        {
          OFFSET 0.0 0.0 0.0
          CHANNELS 0 
          End Site
          {
            OFFSET 0.0 -0.0 0.0
          }
        }
      }
      JOINT RightUpLegEnd
      {
        OFFSET 0.0 0.0 0.0
        CHANNELS 0 
        End Site
        {
          OFFSET 0.0 -0.0 0.0
        }
      }
    }
  }
  JOINT LeftUpLeg
  {
    OFFSET 11.315672874 4e-09 -0.0
    CHANNELS 3 Zrotation Xrotation Yrotation
    JOINT LeftLeg
    {
      OFFSET 0.0 -38.200325012 0.0
      CHANNELS 3 Zrotation Xrotation Yrotation
      JOINT LeftFoot
      {
        OFFSET 0.0 -39.900856018 0.0
        CHANNELS 3 Zrotation Xrotation Yrotation
        JOINT LeftToeBase
        {
          OFFSET 0.0 -2.773e-06 15.261655807
          CHANNELS 3 Zrotation Xrotation Yrotation
          JOINT LeftToeBaseEnd
          {
            OFFSET 0.0 -4.22e-07 7.539977551
            CHANNELS 0 
            End Site
            {
              OFFSET 0.0 -2.7e-07 2.261993408
            }
          }
        }
        JOINT LeftLegEnd
        {
          OFFSET 0.0 0.0 0.0
          CHANNELS 0 
          End Site
          {
            OFFSET 0.0 -0.0 0.0
          }
        }
      }
      JOINT LeftUpLegEnd
      {
        OFFSET 0.0 0.0 0.0
        CHANNELS 0 
        End Site
        {
          OFFSET 0.0 -0.0 0.0
        }
      }
    }
  }
}
MOTION
Frames: 4
Frame Time: 0.016666666666666666
-379.12991333 85.331672668 560.803466797 -11.989625931 -18.996688843 -15.202303886 5.648753166 8.548631668 -1.126994729 1.421066165 2.316325188 0.092386484 1.65350616 12.577199936 -0.573150039 0.990489066 6.048279285 0.917785347 -3.431402922 7.459220886 5.503398895 0.647242963 -1.78015697 6.139637947 -3.77947998 -18.951786041 -2.065634012 2.075177431 0.454775304 13.501517296 54.887138367 44.432449341 9.553199768 0.510675073 -14.606702805 23.384370804 7.598283291 -17.72259903 -5.638325691 6.489099026 2.13367033 -2.948345184 0.449062049 1.807842016 -25.861211777 0.225535095 1.279571176 -17.955949783 13.141777039 1.281e-06 -9.863536835 9.199252129 -2e-06 -3.005e-06 9.199252129 1e-06 -5.005e-06 12.292085648 1.814e-06 -10.574077606 8.60447216 -2e-06 -2.004e-06 8.60447216 -1e-06 -3.004e-06 14.291955948 1.708e-06 -8.818070412 10.004369736 -2e-06 -4.005e-06 10.004369736 -3e-06 -3.005e-06 15.626217842 3.949e-06 -9.038478851 10.938346863 -1.001e-06 -4.005e-06 10.938346863 -2.001e-06 -4.005e-06 -0.224696234 0.068732642 -9.511044502 -69.418457031 4.918430805 0.366265744 -1.539682627 -16.729820251 -102.944206238 60.314102173 8.481689453 -16.766788483 1.824949741 0.584799826 -0.888885617 -0.028317727 0.416344136 5.744979382 -0.015235187 0.289458901 3.989526033 25.85602951 -3.415e-06 -23.474185944 0.0 -1e-06 0.0 0.0 -1e-06 0.0 26.444980621 -6.4e-07 -9.899190903 0.0 -0.0 -6e-06 -0.0 -1e-06 -2e-06 26.716213226 3.2e-07 5.697424412 0.0 -0.0 -1e-06 0.0 -0.0 -1e-06 25.107980728 8.111e-06 22.059951782 -0.0 1e-06 2e-06 0.0 -1e-06 0.0 14.929591179 21.227956772 -14.781248093 0.001264977 12.480097771 -0.517194986 -7.936294079 9.385798454 -15.940666199 0.514593303 -14.661096573 0.612292051 21.820026398 -2.487427711 9.551693916 0.002741958 28.054428101 0.627387881 -18.7781353 20.434785843 29.55683136 3.416934013 -19.059247971 0.597483933 
-379.126495361 85.335105896 560.803710938 -12.029561996 -19.03591156 -15.287536621 5.660068035 8.556609154 -1.141464829 1.43608427 2.298651934 0.081498586 1.708609939 12.587441444 -0.642577291 1.010741591 6.041913033 0.901665866 -3.469639063 7.548211098 5.462399006 0.588967085 -1.736514091 6.088263988 -3.818059206 -18.863203049 -2.087366581 2.057170153 0.44912672 13.460447311 54.831012726 44.396579742 9.655368805 0.509015977 -14.58491993 23.354196548 7.604817867 -17.688661575 -5.600520611 6.489099503 2.133668423 -2.948346853 0.449061722 1.807842016 -25.861217499 0.22553499 1.279567599 -17.955951691 13.15226078 6.4e-07 -9.89781189 9.206577301 -1e-06 -4.005e-06 9.206577301 2e-06 -4.005e-06 12.311155319 3.2e-07 -10.602456093 8.617806435 1e-06 -4.004e-06 8.617806435 -0.0 -3.004e-06 14.332937241 2.775e-06 -8.852897644 10.033067703 -1e-06 -4.005e-06 10.033052444 -0.0 -4.005e-06 15.682370186 2.988e-06 -9.085513115 10.977659225 -1.001e-06 -4.005e-06 10.977673531 -1e-09 -5.005e-06 -0.214625075 0.066753112 -9.510318756 -69.553764343 4.630256653 0.099569581 -1.514508128 -16.800365448 -101.597862244 57.994220734 8.262306213 -12.876934052 2.117645025 0.507814705 -1.031227827 -0.02249966 0.364480883 5.026833057 -0.012227422 0.253340006 3.490829706 27.019382477 -7.684e-06 -23.262069702 0.0 -3e-06 2e-06 0.0 -1e-06 0.0 27.472028732 -6.83e-06 -9.851243019 -0.0 0.0 -0.0 -0.0 -1e-06 -1e-06 27.548002243 -2.988e-06 5.635025024 0.0 -1e-06 4e-06 0.0 -2e-06 1e-06 25.673707962 2.561e-06 21.872650146 0.0 -1e-06 2e-06 0.0 -0.0 -2e-06 14.927689552 21.282468796 -14.746588707 0.001163596 12.476016998 -0.517415106 -7.944083214 9.393248558 -15.911615372 0.502399206 -14.663796425 0.609108508 21.834672928 -2.406818151 9.566823959 0.002664063 28.055625916 0.627447963 -18.796947479 20.42067337 29.589729309 3.420562267 -19.055622101 0.599022031 
-379.123352051 85.338531494 560.803161621 -12.068966866 -19.072465897 -15.371438026 5.682427406 8.567548752 -1.157429814 1.448015332 2.279909134 0.072490387 1.765589118 12.594462395 -0.711132169 1.023018122 6.036808014 0.883245349 -3.528951406 7.613131046 5.42916441 0.528505147 -1.703311563 6.02475071 -3.856858492 -18.77526474 -2.109549522 2.006970406 0.435936838 13.422683716 54.814380646 44.364521027 9.761594772 0.505476236 -14.585596085 23.321928024 7.629301071 -17.533790588 -5.630671501 6.48910284 2.133670092 -2.948345184 0.449061841 1.807842016 -25.861211777 0.225542024 1.27957356 -17.955953598 13.121687889 -1.814e-06 -9.852173805 9.185188293 1e-06 -4.005e-06 9.185188293 -0.0 -5.005e-06 12.307490349 -1.07e-07 -10.562260628 8.615235329 -2e-06 -3.004e-06 8.615249634 1e-06 -3.004e-06 14.395030022 -2.668e-06 -8.835476875 10.076519012 2e-06 -4.005e-06 10.076519012 -1e-06 -3.005e-06 15.804564476 -1.387e-06 -9.104737282 11.063202858 -1.001e-06 -5.005e-06 11.063188553 -2.001e-06 -3.005e-06 -0.213639185 0.066294074 -9.508940697 -69.652740479 4.530776024 -0.223674044 -1.445796728 -17.069316864 -99.819419861 55.51776886 6.921789169 -9.331756592 2.117647648 0.507819772 -1.031231403 -0.022498602 0.364486068 5.026831627 -0.012226183 0.253341764 3.490824461 27.11829567 -7.257e-06 -22.944299698 0.0 -0.0 -2e-06 -0.0 0.0 1e-06 27.780996323 -3.842e-06 -9.453250885 0.0 -1e-06 2e-06 -0.0 0.0 -0.0 28.193939209 -2.775e-06 6.169332504 0.0 -1e-06 0.0 0.0 1e-06 -2e-06 26.609472275 5.55e-06 22.636077881 0.0 -1e-06 0.0 0.0 -1e-06 1e-06 14.927130699 21.336233139 -14.713450432 0.001047 12.469050407 -0.517664552 -7.952241421 9.403374672 -15.882529259 0.489717901 -14.671123505 0.605864525 21.850955963 -2.33033514 9.582647324 0.002590128 28.056879044 0.627451956 -18.814769745 20.408098221 29.621765137 3.423101187 -19.035648346 0.600087464 
-379.119842529 85.341873169 560.801269531 -12.106483459 -19.099218369 -15.455432892 5.704567432 8.573862076 -1.174571276 1.470619082 2.258940697 0.056516934 1.82390964 12.599360466 -0.784975052 1.037397265 6.033716679 0.854857028 -3.614114046 7.647096157 5.410695553 0.46204108 -1.685330153 5.953108788 -3.895882845 -18.684076309 -2.12303257 1.914429665 0.413571388 13.408707619 54.826515198 44.351856232 9.872264862 0.497654408 -14.610722542 23.293903351 7.673508644 -17.330194473 -5.680378914 6.489098549 2.13367033 -2.948345184 0.449065834 1.807844639 -25.861215591 0.225541577 1.27957356 -17.955953598 13.065864563 3.522e-06 -9.810267448 9.14609623 -2e-06 -4.004e-06 9.14609623 1e-06 -4.004e-06 12.284655571 1.067e-06 -10.528183937 8.599256516 -0.0 -3.004e-06 8.599256516 1e-06 -3.004e-06 14.45229435 3.629e-06 -8.830227852 10.116602898 2e-06 -4.005e-06 10.116602898 -1e-06 -4.005e-06 15.936626434 2.561e-06 -9.141859055 11.155639648 -3.001e-06 -4.005e-06 11.15563488 -1.001e-06 -5.005e-06 -0.228046969 0.068327911 -9.487613678 -69.704536438 4.579473019 -0.57780242 -1.340163469 -17.405715942 -97.531257629 53.565338135 6.965649128 -7.012098789 2.40997839 0.429315954 -1.173810601 -0.01732377 0.312558413 4.308695316 -0.009539145 0.217204452 2.992135048 28.479003906 -4.269e-06 -20.979402542 0.0 -0.0 -2e-06 0.0 -0.0 -2e-06 28.851034164 -5.55e-06 -7.920380592 0.0 -0.0 0.0 -0.0 1e-06 -0.0 28.880167007 -1.067e-06 7.708416462 -0.0 0.0 2e-06 -0.0 0.0 2e-06 26.833400726 7.257e-06 24.508281708 0.0 -0.0 0.0 -0.0 0.0 1e-06 14.92693615 21.385837555 -14.680329323 0.000842821 12.451340675 -0.517929256 -7.960725784 9.420180321 -15.852473259 0.476821065 -14.676621437 0.60263586 21.874605179 -2.266870975 9.6036129 0.002481689 28.061157227 0.627420306 -18.830162048 20.396169662 29.65004921 3.42445159 -19.027866364 0.600617468 
